<svg id="visual" viewBox="0 0 900 600" width="900" height="600" xmlns="http://www.w3.org/2000/svg" xmlns:xlink="http://www.w3.org/1999/xlink" version="1.1"><rect x="0" y="0" width="900" height="600" fill="#FF0066"></rect><g transform="translate(493.5148780329723 314.5741678857047)"><path d="M108.4 -125.5C142.2 -100.8 172.5 -68.3 177.1 -32.6C181.7 3 160.6 41.7 139.8 83.4C118.9 125.1 98.5 169.7 68.8 173.9C39.2 178.1 0.3 141.9 -54.9 130.6C-110.2 119.3 -182 132.9 -222.2 107.1C-262.4 81.2 -271 16 -260.9 -46.8C-250.7 -109.5 -221.8 -169.6 -175.2 -192.1C-128.6 -214.5 -64.3 -199.3 -13.5 -183.2C37.3 -167.1 74.6 -150.2 108.4 -125.5" fill="#BB004B"></path></g></svg>